<?xml version="1.0" encoding="UTF-8" standalone="no"?>
<svg
   clip-rule="evenodd"
   fill-rule="evenodd"
   stroke-linejoin="round"
   stroke-miterlimit="2"
   viewBox="0 0 24 24"
   version="1.1"
   id="svg3723"
   sodipodi:docname="arrow-right.svg"
   inkscape:version="1.2.2 (732a01da63, 2022-12-09)"
   xmlns:inkscape="http://www.inkscape.org/namespaces/inkscape"
   xmlns:sodipodi="http://sodipodi.sourceforge.net/DTD/sodipodi-0.dtd"
   xmlns="http://www.w3.org/2000/svg"
   xmlns:svg="http://www.w3.org/2000/svg">
  <defs
     id="defs3727" />
  <sodipodi:namedview
     id="namedview3725"
     pagecolor="#ffffff"
     bordercolor="#000000"
     borderopacity="0.25"
     inkscape:showpageshadow="2"
     inkscape:pageopacity="0.0"
     inkscape:pagecheckerboard="0"
     inkscape:deskcolor="#d1d1d1"
     showgrid="false"
     inkscape:zoom="34.541667"
     inkscape:cx="12.028951"
     inkscape:cy="12.014475"
     inkscape:window-width="1920"
     inkscape:window-height="1009"
     inkscape:window-x="-8"
     inkscape:window-y="-8"
     inkscape:window-maximized="1"
     inkscape:current-layer="svg3723" />
  <path
     fill="#0aa8a7"
     d="m14.523 18.787s4.501-4.505 6.255-6.26c.146-.146.219-.338.219-.53s-.073-.383-.219-.53c-1.753-1.754-6.255-6.258-6.255-6.258-.144-.145-.334-.217-.524-.217-.193 0-.385.074-.532.221-.293.292-.295.766-.004 1.056l4.978 4.978h-14.692c-.414 0-.75.336-.75.75s.336.75.75.75h14.692l-4.979 4.979c-.289.289-.286.762.006 1.054.148.148.341.222.533.222.19 0 .378-.072.522-.215z"
     fill-rule="nonzero"
     id="path3721"
     style="fill:#ce7b00;fill-opacity:1" />
</svg>
