<?xml version="1.0" encoding="UTF-8" standalone="no"?>
<svg
   clip-rule="evenodd"
   fill-rule="evenodd"
   stroke-linejoin="round"
   stroke-miterlimit="2"
   viewBox="0 0 24 24"
   version="1.1"
   id="svg3723"
   sodipodi:docname="arrow-right.svg"
   inkscape:version="1.2.2 (732a01da63, 2022-12-09)"
   xmlns:inkscape="http://www.inkscape.org/namespaces/inkscape"
   xmlns:sodipodi="http://sodipodi.sourceforge.net/DTD/sodipodi-0.dtd"
   xmlns="http://www.w3.org/2000/svg"
   xmlns:svg="http://www.w3.org/2000/svg">
  <defs
     id="defs3727" />
  <sodipodi:namedview
     id="namedview3725"
     pagecolor="#ffffff"
     bordercolor="#000000"
     borderopacity="0.25"
     inkscape:showpageshadow="2"
     inkscape:pageopacity="0.0"
     inkscape:pagecheckerboard="0"
     inkscape:deskcolor="#d1d1d1"
     showgrid="false"
     inkscape:zoom="34.541667"
     inkscape:cx="12.057901"
     inkscape:cy="19.367913"
     inkscape:window-width="1920"
     inkscape:window-height="1009"
     inkscape:window-x="-8"
     inkscape:window-y="-8"
     inkscape:window-maximized="1"
     inkscape:current-layer="svg3723" />
  <path
     fill="#0aa8a7"
     d="m 9.473,18.787 c 0,0 -4.501,-4.505 -6.255,-6.26 -0.146,-0.146 -0.219,-0.338 -0.219,-0.53 0,-0.192 0.073,-0.383 0.219,-0.53 C 4.971,9.713 9.473,5.209 9.473,5.209 9.617,5.064 9.807,4.992 9.997,4.992 c 0.193,0 0.385,0.074 0.532,0.221 0.293,0.292 0.295,0.766 0.004,1.056 l -4.978,4.978 h 14.692 c 0.414,0 0.75,0.336 0.75,0.75 0,0.414 -0.336,0.75 -0.75,0.75 H 5.555 l 4.979,4.979 c 0.289,0.289 0.286,0.762 -0.006,1.054 -0.148,0.148 -0.341,0.222 -0.533,0.222 -0.19,0 -0.378,-0.072 -0.522,-0.215 z"
     fill-rule="nonzero"
     id="path3721"
     style="fill:#ce7b00;fill-opacity:1" />
</svg>
