<svg width="207" height="86" viewBox="0 0 207 86" fill="none" xmlns="http://www.w3.org/2000/svg">
<path d="M59.1489 26.0553C56.84 21.5231 55.1298 16.9909 54.8732 12.0311C54.5312 4.93356 58.9779 2.71022 59.9185 2.36817V2.28265C58.3793 2.45368 47.6046 4.59151 52.6499 28.6207C58.0372 54.4456 49.1439 65.3058 37.001 69.838C22.9769 75.0543 3.99295 66.5885 3.99295 66.5885C3.99295 66.5885 14.34 91.0452 42.7304 84.9738C71.5483 78.8169 70.7787 51.0251 65.5624 39.0533C65.1348 37.9416 62.0563 31.6992 59.1489 26.0553Z" fill="url(#paint0_linear)"/>
<path d="M3.22333 63.4245C3.47987 64.1941 3.73641 64.8783 3.73641 64.9638L4.84808 65.3913C6.81488 66.2465 12.5443 68.3843 19.3853 69.4104C20.497 69.5815 21.5231 69.667 22.6348 69.838C26.8249 70.1801 31.2716 70.0946 35.3762 68.8119C13.0573 53.8471 17.9316 27.8511 35.1197 12.9718C48.3742 1.42755 57.9517 1.17101 60.5171 1.34204V1.25653C57.7807 0.828961 46.9205 -0.111683 30.5875 7.41347C8.86719 17.504 -3.44669 40.6781 2.45371 60.9446C2.53922 61.2867 2.88128 62.4839 3.22333 63.4245Z" fill="#006650"/>
<path d="M77.7907 13.998V46.7495H86.342V34.1791H86.4276L94.4658 46.7495H105.069L94.8078 33.3239C99.4255 32.4688 101.991 28.6207 101.991 24.0885C101.991 17.0765 97.1167 13.998 90.6177 13.998H77.7907ZM87.1117 20.497C89.8481 20.497 93.0121 21.0101 93.0121 24.6016C93.0121 28.1932 89.8481 28.7062 87.1117 28.7062H86.2565V20.497H87.1117Z" fill="#006650"/>
<path d="M121.402 47.6046C125.251 47.6046 129.526 46.664 132.263 43.9276C135.512 40.7636 135.683 36.5734 135.683 32.3833V13.998H127.132V31.2716C127.132 35.5473 126.79 40.165 121.317 40.165C115.844 40.165 115.502 35.5473 115.502 31.2716V13.998H106.951V32.4688C106.951 36.659 107.122 40.8491 110.371 44.0131C113.279 46.664 117.64 47.6046 121.402 47.6046Z" fill="#006A51"/>
<path d="M159.456 29.3048V29.2193C162.107 27.8511 163.047 25.4567 163.047 22.5493C163.047 16.3068 159.114 13.998 153.299 13.998H141.156V46.7495H154.325C160.311 46.7495 166.211 44.5262 166.211 37.5996C166.126 33.0674 164.159 29.9034 159.456 29.3048ZM149.622 20.497H150.22C152.529 20.497 155.18 20.668 155.18 23.661C155.18 26.4829 152.871 26.8249 150.562 26.8249H149.622V20.497ZM150.733 40.2505H149.622V33.2384H150.477C153.299 33.2384 157.489 32.8109 157.489 36.83C157.489 40.336 153.299 40.2505 150.733 40.2505Z" fill="#006650"/>
<path d="M178.525 24.4305H170.658V46.7495H178.525V24.4305Z" fill="#006650"/>
<path d="M178.354 13.5704H170.914V21.0101H178.354V13.5704Z" fill="#006A51"/>
<path d="M198.364 26.7394L196.226 26.0553C194.773 25.5422 192.464 24.8581 192.464 22.8913C192.464 21.0955 194.516 20.1549 196.141 20.1549C198.193 20.1549 200.245 21.01 201.785 22.2927L205.205 15.7082C202.298 14.0835 198.279 12.9718 194.944 12.9718C188.359 12.9718 183.656 17.333 183.656 24.003C183.656 30.331 187.162 31.6992 192.549 33.2384C194.345 33.7515 197.766 34.6066 197.766 37.001C197.766 39.3098 195.628 40.336 193.661 40.336C190.754 40.336 188.188 38.7968 186.136 36.9155L182.459 43.7565C185.794 46.0654 189.813 47.5191 194.003 47.5191C197.338 47.5191 200.759 46.5784 203.324 44.4406C205.889 42.2173 206.744 38.8823 206.744 35.6328C206.402 30.4165 202.896 28.1076 198.364 26.7394Z" fill="#006650"/>
<path d="M94.4658 70.7787C94.4658 70.6077 94.4658 70.4366 94.3803 70.3511C94.2948 70.1801 94.1237 70.1801 93.8672 70.1801H88.0523C87.6248 70.1801 87.4537 70.3511 87.3682 70.6932L87.1972 71.5483C87.1117 71.7193 87.1972 71.8904 87.2827 72.0614C87.4537 72.2324 87.7103 72.2324 87.7958 72.2324H91.9859L90.2757 80.9547C90.1901 81.2968 90.1901 81.2968 89.8481 81.3823C88.3944 81.7244 86.6841 81.8954 85.2304 81.8954C80.3561 81.8954 79.4155 80.0996 79.4155 76.8501C79.4155 74.7978 79.8431 72.3179 80.5272 69.1539C81.7243 63.339 82.836 59.7475 89.164 59.7475C91.1308 59.7475 92.5845 60.1751 94.3803 61.1157C94.5513 61.2012 94.6368 61.2867 94.8078 61.2867C95.1499 61.2867 95.3209 60.9447 95.4064 60.8592L95.7485 60.2606C96.005 59.7475 95.7485 59.491 95.492 59.3199C94.4658 58.7213 92.2425 57.6952 89.2495 57.6952C85.9145 57.6952 83.5201 58.5503 81.8099 60.1751C79.8431 62.1419 78.9024 65.4769 78.3038 68.7264C77.7052 71.6338 77.0211 75.2254 77.0211 77.2777C77.0211 81.9809 79.501 84.0332 84.9738 84.0332C87.5392 84.0332 89.8481 83.6912 91.5584 83.0926C92.2425 82.836 92.4135 82.4085 92.499 81.8954L94.4658 70.7787Z" fill="#006650"/>
<path d="M111.483 58.9779C111.397 58.3793 110.97 58.0372 110.371 58.0372H109.345C108.832 58.0372 108.404 58.2083 108.062 58.8069C104.385 65.3914 100.623 73.002 96.1761 82.9215C96.005 83.1781 96.0905 83.3491 96.1761 83.5201C96.2616 83.6056 96.3471 83.7767 96.6891 83.7767H97.5443C98.0573 83.7767 98.3139 83.5201 98.3994 83.1781L101.905 75.3964H111.397C111.568 77.8763 111.825 80.4417 111.996 83.007C111.996 83.4346 112.253 83.6912 112.766 83.6912H113.621C113.877 83.6912 114.048 83.6056 114.134 83.4346C114.219 83.3491 114.305 83.1781 114.305 82.9215C113.706 74.6268 112.595 64.9638 111.483 58.9779ZM102.846 73.2586C105.24 68.2133 107.293 64.1087 109.431 60.0895H109.516C110.115 63.7666 110.628 68.5553 111.141 73.2586H102.846Z" fill="#006650"/>
<path d="M115.759 51.7092C115.673 51.4527 115.416 51.1106 114.818 51.3672L107.207 54.6167C106.865 54.7877 106.78 55.0442 106.865 55.3863L107.293 56.4124C107.378 56.669 107.635 56.7545 107.72 56.7545C107.806 56.7545 107.891 56.7545 107.977 56.669L115.502 53.9326C115.844 53.847 116.101 53.5905 116.186 53.4195C116.272 53.2484 116.272 52.9919 116.101 52.7354L115.759 51.7092Z" fill="#006650"/>
<path d="M135.256 58.6358C133.545 58.0372 131.578 57.6952 129.697 57.6952C125.336 57.6952 122.771 59.3199 121.83 62.5694C121.402 64.1087 121.146 65.5624 121.146 66.503C121.146 69.0684 122.258 70.4366 125.165 71.1207L128.158 71.8904C130.98 72.5745 131.493 73.5151 131.493 75.1399C131.493 75.824 131.322 76.7646 131.065 77.7908C130.21 80.6127 128.158 81.9809 124.566 81.9809C122.771 81.9809 120.804 81.5533 119.179 80.7837C118.752 80.6127 118.409 80.6982 118.238 81.1258L117.896 81.8954C117.811 82.2374 117.725 82.5795 118.238 82.7505C120.034 83.6056 122.343 84.0332 124.652 84.0332C129.27 84.0332 132.177 82.0664 133.289 78.1328C133.631 76.8501 133.887 75.5674 133.887 74.7978C133.887 72.0614 132.605 70.6932 129.184 69.838L126.02 68.9829C123.968 68.4698 123.54 67.5292 123.54 66.2465C123.54 65.3914 123.711 64.4507 123.968 63.4246C124.566 61.2012 125.764 59.7475 129.526 59.7475C131.236 59.7475 132.776 60.004 134.486 60.4316C134.999 60.6026 135.341 60.5171 135.427 60.0896L135.683 59.3199C135.854 59.0634 135.683 58.7213 135.256 58.6358Z" fill="#006650"/>
<defs>
<linearGradient id="paint0_linear" x1="10.6941" y1="76.3263" x2="77.8022" y2="25.7593" gradientUnits="userSpaceOnUse">
<stop stop-color="#FFF200"/>
<stop offset="0.022293" stop-color="#FFE900"/>
<stop offset="0.2196" stop-color="#FCB127"/>
<stop offset="0.3954" stop-color="#F68632"/>
<stop offset="0.5433" stop-color="#F26435"/>
<stop offset="0.6576" stop-color="#F04B36"/>
<stop offset="0.7244" stop-color="#EF4036"/>
<stop offset="1" stop-color="#EF4036"/>
</linearGradient>
</defs>
</svg>
