<?xml version="1.0" encoding="UTF-8" standalone="no"?>
<svg
   version="1.1"
   id="Camada_1"
   x="0px"
   y="0px"
   viewBox="0 0 789.8 207.1"
   style="enable-background:new 0 0 789.8 207.1;"
   xml:space="preserve"
   sodipodi:docname="client-cml.svg"
   inkscape:version="1.2.2 (732a01da63, 2022-12-09)"
   xmlns:inkscape="http://www.inkscape.org/namespaces/inkscape"
   xmlns:sodipodi="http://sodipodi.sourceforge.net/DTD/sodipodi-0.dtd"
   xmlns="http://www.w3.org/2000/svg"
   xmlns:svg="http://www.w3.org/2000/svg"><defs
   id="defs33" /><sodipodi:namedview
   id="namedview31"
   pagecolor="#ffffff"
   bordercolor="#000000"
   borderopacity="0.25"
   inkscape:showpageshadow="2"
   inkscape:pageopacity="0.0"
   inkscape:pagecheckerboard="0"
   inkscape:deskcolor="#d1d1d1"
   showgrid="false"
   inkscape:zoom="1.5332996"
   inkscape:cx="394.89999"
   inkscape:cy="103.69793"
   inkscape:window-width="1920"
   inkscape:window-height="1009"
   inkscape:window-x="-8"
   inkscape:window-y="-8"
   inkscape:window-maximized="1"
   inkscape:current-layer="g28" />
<g
   id="g28">
	<g
   id="g22"
   style="fill:#000000">
		<path
   style="fill:#000000"
   d="M73.2,80c1.4,3.9,2.1,8.4,2.1,13.2c0,0.4,0,0.8,0,1.2c0,5.3-3.2,9.9-7.7,12    c-5.8,2.5-13.3,4.7-21.6,6c-6.2,1-12.1,1.4-17.3,1.3l-9.2,21.6c-0.4,0.7-1.1,1.3-1.9,1.3c-0.5,0-1-0.2-1.4-0.5L0.7,123.3    c-0.4-0.4-0.7-1-0.7-1.6c0-0.7,0.3-1.3,0.9-1.7L63,62.4c2.6-2.4,6.1-3.9,10-3.9c4,0,7.7,1.6,10.4,4.2l13.8,14.1    c0.3,0.4,0.5,0.9,0.5,1.4c0,1.2-0.9,2.1-2.1,2.1L73.2,80z"
   id="path2" />
		<path
   style="fill:#000000"
   d="M73.2,80c1.4,3.9,2.1,8.4,2.1,13.2c0,0.4,0,0.8,0,1.2c0,5.3-3.2,9.9-7.7,12    c-5.8,2.5-13.3,4.7-21.6,6c-6.2,1-12.1,1.4-17.3,1.3l-9.2,21.6c-0.4,0.7-1.1,1.3-1.9,1.3c-0.5,0-1-0.2-1.4-0.5L0.7,123.3    c-0.4-0.4-0.7-1-0.7-1.6c0-0.7,0.3-1.3,0.9-1.7L63,62.4c2.6-2.4,6.1-3.9,10-3.9c4,0,7.7,1.6,10.4,4.2l13.8,14.1    c0.3,0.4,0.5,0.9,0.5,1.4c0,1.2-0.9,2.1-2.1,2.1L73.2,80z"
   id="path4" />
		<path
   style="fill:#000000"
   d="M177.4,197.3c0.9-1,1.5-2.4,1.5-3.8c0-3.2-2.6-5.7-5.7-5.7c-1.5,0-2.8,0.6-3.8,1.5    c-4.1,3.9-8.7,6.1-15,6.2c-5.8,0.1-11.2-2.2-15-6c-1.1-1-2.5-1.7-4.1-1.7c-1.8,0-3.1,0.7-4.2,1.9c-3.6,3.7-8.5,6-14.1,6    s-10.4-2.1-14-5.9c-1.1-1.3-2.7-2.1-4.4-2.1c-1.6,0-3.2,0.7-4.2,1.8c-3.9,3.9-9.1,6.1-15,6.1c-5.8,0-11.2-2.4-15-6.3    c-1.1-1-2.5-1.7-4.1-1.7c-3.2,0-5.7,2.6-5.7,5.7c0,1.4,0.6,3,1.5,4c5.2,6,13.1,9.8,21.7,9.8c6.2,0,12.1-1.8,16.8-5.1    c0.9-0.8,2.2-1.2,3.6-1.2c1.5,0,2.8,0.5,3.8,1.4c4.1,3,9.2,4.9,14.7,4.9c5.7,0,10.9-1.9,15.2-5.2c1-0.8,2.2-1.3,3.5-1.3    c1.4,0,2.5,0.4,3.5,1.2c4.7,3.3,10.4,5.2,16.5,5.2C164.1,207.3,172,203.3,177.4,197.3"
   id="path6" />
		<path
   style="fill:#000000"
   d="M177.4,197.3c0.9-1,1.5-2.4,1.5-3.8c0-3.2-2.6-5.7-5.7-5.7c-1.5,0-2.8,0.6-3.8,1.5    c-4.1,3.9-8.7,6.1-15,6.2c-5.8,0.1-11.2-2.2-15-6c-1.1-1-2.5-1.7-4.1-1.7c-1.8,0-3.1,0.7-4.2,1.9c-3.6,3.7-8.5,6-14.1,6    s-10.4-2.1-14-5.9c-1.1-1.3-2.7-2.1-4.4-2.1c-1.6,0-3.2,0.7-4.2,1.8c-3.9,3.9-9.1,6.1-15,6.1c-5.8,0-11.2-2.4-15-6.3    c-1.1-1-2.5-1.7-4.1-1.7c-3.2,0-5.7,2.6-5.7,5.7c0,1.4,0.6,3,1.5,4c5.2,6,13.1,9.8,21.7,9.8c6.2,0,12.1-1.8,16.8-5.1    c0.9-0.8,2.2-1.2,3.6-1.2c1.5,0,2.8,0.5,3.8,1.4c4.1,3,9.2,4.9,14.7,4.9c5.7,0,10.9-1.9,15.2-5.2c1-0.8,2.2-1.3,3.5-1.3    c1.4,0,2.5,0.4,3.5,1.2c4.7,3.3,10.4,5.2,16.5,5.2C164.1,207.3,172,203.3,177.4,197.3z"
   id="path8" />
		<path
   style="fill:#000000"
   d="M162.3,36.5c0-1.8-1.5-3.3-3.3-3.3l0,0H74.5c-1.8,0-3.4,1.4-3.4,3.2v7.2c0,1.8,1.6,3.5,3.4,3.5h37    l-6.8,94.8c-12.4-3.4-22.5-11.9-28.1-23.2H43c-1.8,0-3.2,1.6-3.2,3.4l-0.1,8.7c0,1.8,1.6,3.4,3.5,3.4h8.9    c8.1,28,33.9,48.4,64.5,48.4s56.5-20.6,64.6-48.6h8.5c1.8,0,3.4-1.5,3.4-3.3L193,122c0-1.8-1.4-3.4-3.2-3.4h-32.9    c-5.6,11.7-15.7,19.9-28.4,23.4L122,47h36.9c1.8,0,3.4-1.3,3.4-3.2L162.3,36.5z"
   id="path10" />
		<path
   style="fill:#000000"
   d="M162.3,36.5c0-1.8-1.5-3.3-3.3-3.3l0,0H74.5c-1.8,0-3.4,1.4-3.4,3.2v7.2c0,1.8,1.6,3.5,3.4,3.5h37    l-6.8,94.8c-12.4-3.4-22.5-11.9-28.1-23.2H43c-1.8,0-3.2,1.6-3.2,3.4l-0.1,8.7c0,1.8,1.6,3.4,3.5,3.4h8.9    c8.1,28,33.9,48.4,64.5,48.4s56.5-20.6,64.6-48.6h8.5c1.8,0,3.4-1.5,3.4-3.3L193,122c0-1.8-1.4-3.4-3.2-3.4h-32.9    c-5.6,11.7-15.7,19.9-28.4,23.4L122,47h36.9c1.8,0,3.4-1.3,3.4-3.2L162.3,36.5z"
   id="path12" />
		<path
   style="fill:#000000"
   d="M137.3,26.9c1.3,0,2.3-1,2.3-2.3c0-0.7-0.3-1.3-0.8-1.7l-12.3-9.3L138.8,4c0.4-0.4,0.7-1,0.7-1.7    c0-1.3-1.1-2.3-2.3-2.3h-30.7c-1.8,0-3.3,1.6-3.3,3.4l-0.1,20.3c0,1.8,1.5,3.3,3.3,3.3L137.3,26.9z"
   id="path14" />
		<path
   style="fill:#000000"
   d="M137.3,26.9c1.3,0,2.3-1,2.3-2.3c0-0.7-0.3-1.3-0.8-1.7l-12.3-9.3L138.8,4c0.4-0.4,0.7-1,0.7-1.7    c0-1.3-1.1-2.3-2.3-2.3h-30.7c-1.8,0-3.3,1.6-3.3,3.4l-0.1,20.3c0,1.8,1.5,3.3,3.3,3.3L137.3,26.9z"
   id="path16" />
		<path
   style="fill:#000000"
   d="M158.1,79.8c-1.4,3.9-2.1,8.4-2.1,13.2c0,0.4,0,0.8,0,1.2c0,5.3,3.2,9.9,7.7,12    c5.8,2.5,13.3,4.7,21.6,6c6.2,1,12.1,1.4,17.3,1.3l9.2,21.6c0.4,0.7,1.1,1.3,1.9,1.3c0.5,0,1-0.2,1.4-0.5l15.5-12.8    c0.4-0.4,0.7-0.9,0.7-1.6c0-0.7-0.3-1.3-0.9-1.7l-61.9-57.7c-2.6-2.4-6.1-3.9-10-3.9c-4,0-7.7,1.6-10.4,4.2l-13.8,14.1    c-0.3,0.4-0.5,0.9-0.5,1.4c0,1.2,0.9,2.1,2.1,2.1L158.1,79.8z"
   id="path18" />
		<path
   style="fill:#000000"
   d="M158.1,79.8c-1.4,3.9-2.1,8.4-2.1,13.2c0,0.4,0,0.8,0,1.2c0,5.3,3.2,9.9,7.7,12    c5.8,2.5,13.3,4.7,21.6,6c6.2,1,12.1,1.4,17.3,1.3l9.2,21.6c0.4,0.7,1.1,1.3,1.9,1.3c0.5,0,1-0.2,1.4-0.5l15.5-12.8    c0.4-0.4,0.7-0.9,0.7-1.6c0-0.7-0.3-1.3-0.9-1.7l-61.9-57.7c-2.6-2.4-6.1-3.9-10-3.9c-4,0-7.7,1.6-10.4,4.2l-13.8,14.1    c-0.3,0.4-0.5,0.9-0.5,1.4c0,1.2,0.9,2.1,2.1,2.1L158.1,79.8z"
   id="path20" />
	</g>
	<g
   id="g26">
		<path
   style="fill:#000000;fill-opacity:1"
   d="M755,121.2h-27.5l14-40.3L755,121.2z M789.8,159L749.3,48.2h-17L692,159h22.6l6.7-19.6h39.4    l6.5,19.6H789.8z M662.1,103.6c0,21.3-1.2,26.5-5.4,31.1c-3.1,3.6-7.9,5.9-13.9,5.9c-5.9,0-10.9-2.3-14-5.9    c-4.2-4.7-5.3-9.8-5.3-31.1s1.1-26.5,5.3-31.1c3.1-3.6,8.1-5.9,14-5.9s10.7,2.3,13.9,5.9C660.8,77.2,662.1,82.3,662.1,103.6     M683.7,103.6c0-19.1,0.2-33-11-44.2c-7.8-7.8-17.3-12.1-29.9-12.1c-12.6,0-22.3,4.4-30,12.1c-11.2,11.2-10.9,25.1-10.9,44.2    s-0.3,33,10.9,44.2c7.8,7.8,17.4,12.1,30,12.1s22.1-4.4,29.9-12.1C683.9,136.6,683.7,122.8,683.7,103.6 M560.3,80.3    c0,7.6-5.1,12.8-14.3,12.8h-21.2V67.6H546C555.2,67.5,560.3,72.7,560.3,80.3 M561.9,126.1c0,7.5-4.7,13.7-14.5,13.7h-22.6v-27.2    h22.6C557.2,112.5,561.9,118.6,561.9,126.1 M583.5,127.1c0-14.8-8.6-21.8-15.3-24.9c5.6-2.6,13.7-10.6,13.7-22.9    c0-19-12.6-31.1-34.2-31.1h-44.5V159h46.4C569.3,159,583.5,147.8,583.5,127.1 M482.8,126.4c0-9.8-2.6-17.9-8.6-23.5    c-4.7-4.4-11.1-7.2-21.2-8.6l-13.1-1.9c-4.5-0.6-8.1-2.3-10.3-4.4c-2.3-2.2-3.3-5.1-3.3-7.9c0-7.6,5.6-14,17.1-14    c7.3,0,15.7,0.9,22.7,7.6l13.7-13.5c-9.5-9.2-20.5-12.9-35.8-12.9c-24,0-38.6,13.9-38.6,33.6c0,9.3,2.6,16.5,7.9,21.8    c5,4.8,12,7.8,21.5,9.2l13.4,1.9c5.1,0.8,7.6,1.9,9.8,3.9c2.3,2.2,3.4,5.4,3.4,9.3c0,8.9-6.8,13.7-19.6,13.7    c-10.3,0-19.8-2.3-26.8-9.3l-14,14c10.9,11.1,23.7,14.6,40.5,14.6C464.9,160,482.8,147.8,482.8,126.4 M385.4,48.2h-21.6V159h21.6    V48.2z M346.2,159v-19.3h-50.3V48.2h-21.6V159H346.2z"
   id="path24" />
	</g>
</g>
</svg>
