<?xml version="1.0" encoding="UTF-8" standalone="no"?>
<!-- Uploaded to: SVG Repo, www.svgrepo.com, Transformed by: SVG Repo Mixer Tools -->

<svg
   version="1.1"
   id="_x36_"
   viewBox="0 0 512 512"
   xml:space="preserve"
   width="64px"
   height="64px"
   fill="#000000"
   sodipodi:docname="icon-ruler.svg"
   inkscape:version="1.2.2 (732a01da63, 2022-12-09)"
   xmlns:inkscape="http://www.inkscape.org/namespaces/inkscape"
   xmlns:sodipodi="http://sodipodi.sourceforge.net/DTD/sodipodi-0.dtd"
   xmlns="http://www.w3.org/2000/svg"
   xmlns:svg="http://www.w3.org/2000/svg"><defs
   id="defs33070" /><sodipodi:namedview
   id="namedview33068"
   pagecolor="#ffffff"
   bordercolor="#000000"
   borderopacity="0.25"
   inkscape:showpageshadow="2"
   inkscape:pageopacity="0.0"
   inkscape:pagecheckerboard="0"
   inkscape:deskcolor="#d1d1d1"
   showgrid="false"
   inkscape:zoom="12.953125"
   inkscape:cx="32.077201"
   inkscape:cy="32.038601"
   inkscape:window-width="1920"
   inkscape:window-height="1009"
   inkscape:window-x="-8"
   inkscape:window-y="-8"
   inkscape:window-maximized="1"
   inkscape:current-layer="g33064" />

<g
   id="SVGRepo_bgCarrier"
   stroke-width="0" />

<g
   id="SVGRepo_tracerCarrier"
   stroke-linecap="round"
   stroke-linejoin="round" />

<g
   id="SVGRepo_iconCarrier"> <g
   id="g33064"> <polygon
   style="fill:#001980;fill-opacity:0.23591548"
   points="263.936,265.174 259.832,268.968 184.422,339.81 126.51,281.667 112.419,267.575 112.419,406.471 113.503,406.471 63.023,453.933 56.674,459.816 38.634,476.772 32.363,482.656 13.627,500.231 7.356,506.116 6.427,507.043 1.085,512 0,512 0,0 "
   id="polygon33018" /> <polygon
   style="fill:#001980;fill-opacity:0.69803923"
   points="509.609,511.977 1.082,511.977 7.347,506.093 56.642,459.793 62.988,453.909 113.52,406.449 250.688,406.449 184.412,339.787 263.959,265.152 "
   id="polygon33020" /> <g
   id="g33062"> <rect
   x="0.047"
   y="55.686"
   style="fill:#000000;"
   width="39.965"
   height="5.865"
   id="rect33022" /> <rect
   x="0.047"
   y="79.146"
   style="fill:#000000;"
   width="39.965"
   height="5.866"
   id="rect33024" /> <rect
   x="0.047"
   y="102.606"
   style="fill:#000000;"
   width="67.861"
   height="5.865"
   id="rect33026" /> <rect
   x="0.047"
   y="126.066"
   style="fill:#000000;"
   width="39.965"
   height="5.865"
   id="rect33028" /> <rect
   x="0.047"
   y="149.527"
   style="fill:#000000;"
   width="39.965"
   height="5.865"
   id="rect33030" /> <rect
   x="0.047"
   y="172.987"
   style="fill:#000000;"
   width="39.965"
   height="5.865"
   id="rect33032" /> <rect
   x="0.047"
   y="196.447"
   style="fill:#000000;"
   width="39.965"
   height="5.866"
   id="rect33034" /> <rect
   x="0.047"
   y="219.908"
   style="fill:#000000;"
   width="67.861"
   height="5.865"
   id="rect33036" /> <rect
   x="0.047"
   y="243.368"
   style="fill:#000000;"
   width="39.965"
   height="5.865"
   id="rect33038" /> <rect
   x="0.047"
   y="266.828"
   style="fill:#000000;"
   width="39.965"
   height="5.866"
   id="rect33040" /> <rect
   x="0.047"
   y="290.288"
   style="fill:#000000;"
   width="39.965"
   height="5.865"
   id="rect33042" /> <rect
   x="0.047"
   y="313.748"
   style="fill:#000000;"
   width="39.965"
   height="5.866"
   id="rect33044" /> <rect
   x="0.047"
   y="337.209"
   style="fill:#000000;"
   width="67.861"
   height="5.865"
   id="rect33046" /> <rect
   x="0.047"
   y="360.082"
   style="fill:#000000;"
   width="39.965"
   height="5.866"
   id="rect33048" /> <rect
   x="0.047"
   y="383.543"
   style="fill:#000000;"
   width="39.965"
   height="5.865"
   id="rect33050" /> <rect
   x="0.047"
   y="407.003"
   style="fill:#000000;"
   width="39.965"
   height="5.865"
   id="rect33052" /> <rect
   x="0.047"
   y="430.464"
   style="fill:#000000;"
   width="39.965"
   height="5.865"
   id="rect33054" /> <rect
   x="0.047"
   y="453.923"
   style="fill:#000000;"
   width="67.861"
   height="5.865"
   id="rect33056" /> <rect
   x="0.047"
   y="476.797"
   style="fill:#000000;"
   width="39.965"
   height="5.865"
   id="rect33058" /> <rect
   x="0.047"
   y="500.257"
   style="fill:#000000;"
   width="39.965"
   height="5.865"
   id="rect33060" /> </g> </g> </g>

</svg>
