<?xml version="1.0" encoding="UTF-8" standalone="no"?>
<!-- Uploaded to: SVG Repo, www.svgrepo.com, Generator: SVG Repo Mixer Tools -->

<svg
   width="800px"
   height="800px"
   viewBox="0 0 24 24"
   fill="none"
   version="1.1"
   id="svg12525"
   sodipodi:docname="icon-transparency.svg"
   inkscape:version="1.2.2 (732a01da63, 2022-12-09)"
   xmlns:inkscape="http://www.inkscape.org/namespaces/inkscape"
   xmlns:sodipodi="http://sodipodi.sourceforge.net/DTD/sodipodi-0.dtd"
   xmlns="http://www.w3.org/2000/svg"
   xmlns:svg="http://www.w3.org/2000/svg">
  <defs
     id="defs12529" />
  <sodipodi:namedview
     id="namedview12527"
     pagecolor="#ffffff"
     bordercolor="#000000"
     borderopacity="0.25"
     inkscape:showpageshadow="2"
     inkscape:pageopacity="0.0"
     inkscape:pagecheckerboard="0"
     inkscape:deskcolor="#d1d1d1"
     showgrid="false"
     inkscape:zoom="1.0075"
     inkscape:cx="399.50372"
     inkscape:cy="400"
     inkscape:window-width="1920"
     inkscape:window-height="1009"
     inkscape:window-x="-8"
     inkscape:window-y="-8"
     inkscape:window-maximized="1"
     inkscape:current-layer="svg12525" />
  <path
     d="M13.0095 2.91982L18.9095 5.53982C20.6095 6.28982 20.6095 7.52982 18.9095 8.27982L13.0095 10.8998C12.3395 11.1998 11.2395 11.1998 10.5695 10.8998L4.66953 8.27982C2.96953 7.52982 2.96953 6.28982 4.66953 5.53982L10.5695 2.91982C11.2395 2.61982 12.3395 2.61982 13.0095 2.91982Z"
     stroke="#292D32"
     stroke-width="1.5"
     stroke-linecap="round"
     stroke-linejoin="round"
     id="path12519"
     style="stroke:#001980;stroke-opacity:0.69803923" />
  <path
     opacity="0.4"
     d="M3 11C3 11.84 3.63 12.81 4.4 13.15L11.19 16.17C11.71 16.4 12.3 16.4 12.81 16.17L19.6 13.15C20.37 12.81 21 11.84 21 11"
     stroke="#292D32"
     stroke-width="1.5"
     stroke-linecap="round"
     stroke-linejoin="round"
     id="path12521"
     style="stroke:#001980;stroke-opacity:0.47535211" />
  <path
     opacity="0.4"
     d="M3 16C3 16.93 3.55 17.77 4.4 18.15L11.19 21.17C11.71 21.4 12.3 21.4 12.81 21.17L19.6 18.15C20.45 17.77 21 16.93 21 16"
     stroke="#292D32"
     stroke-width="1.5"
     stroke-linecap="round"
     stroke-linejoin="round"
     id="path12523"
     style="stroke:#001980;stroke-opacity:0.47450981" />
</svg>
