<?xml version="1.0" encoding="UTF-8" standalone="no"?>
<!-- Uploaded to: SVG Repo, www.svgrepo.com, Generator: SVG Repo Mixer Tools -->

<svg
   height="800px"
   width="800px"
   version="1.1"
   id="_x32_"
   viewBox="0 0 512 512"
   xml:space="preserve"
   sodipodi:docname="icon-brain.svg"
   inkscape:version="1.2.2 (732a01da63, 2022-12-09)"
   xmlns:inkscape="http://www.inkscape.org/namespaces/inkscape"
   xmlns:sodipodi="http://sodipodi.sourceforge.net/DTD/sodipodi-0.dtd"
   xmlns="http://www.w3.org/2000/svg"
   xmlns:svg="http://www.w3.org/2000/svg"><defs
   id="defs23746" /><sodipodi:namedview
   id="namedview23744"
   pagecolor="#ffffff"
   bordercolor="#000000"
   borderopacity="0.25"
   inkscape:showpageshadow="2"
   inkscape:pageopacity="0.0"
   inkscape:pagecheckerboard="0"
   inkscape:deskcolor="#d1d1d1"
   showgrid="false"
   inkscape:zoom="1.03625"
   inkscape:cx="400.96502"
   inkscape:cy="399.51749"
   inkscape:window-width="1920"
   inkscape:window-height="1009"
   inkscape:window-x="-8"
   inkscape:window-y="-8"
   inkscape:window-maximized="1"
   inkscape:current-layer="_x32_" />
<style
   type="text/css"
   id="style23735">
	.st0{fill:#000000;}
</style>
<g
   id="g23741">
	
	
</g>
<path
   style="fill:#001980;fill-opacity:0.698039;stroke:#001980;stroke-width:0.931242;stroke-opacity:0.698039"
   d="m 487.81903,780.45838 c -10e-4,-0.39807 -1.47654,-0.72376 -3.2783,-0.72376 -4.79524,0 -15.45553,-3.50855 -23.83042,-7.84316 -13.50743,-6.99105 -25.02441,-18.20431 -32.4339,-31.57856 -1.95519,-3.52915 -3.79757,-6.63377 -4.09418,-6.89915 -0.29661,-0.26538 -0.62324,-1.13389 -0.72586,-1.93003 -0.21635,-1.67856 -2.16626,-9.45614 -2.90327,-11.58022 -0.27625,-0.79614 -0.42279,-4.44242 -0.32566,-8.10285 0.0971,-3.66043 -0.18028,-6.91737 -0.61649,-7.23764 -0.4362,-0.32027 -0.67951,-72.95495 -0.54069,-161.41041 l 0.2524,-160.8281 5.29777,-0.32992 c 2.91377,-0.18146 5.29717,-0.10023 5.29645,0.1805 -10e-4,0.55047 16.13895,3.11821 20.50532,3.26216 1.45959,0.0482 2.6538,0.46383 2.6538,0.9238 0,0.45998 0.84769,0.61464 1.88376,0.3437 1.03607,-0.27094 2.01733,-0.092 2.18056,0.39777 0.16324,0.48972 1.5954,0.98644 3.18258,1.10383 1.58718,0.11739 3.10291,0.45755 3.36829,0.75591 0.26538,0.29835 3.00828,1.55468 6.09533,2.79183 12.75552,5.11187 24.12991,15.22185 29.79147,26.47977 1.62958,3.24038 3.23255,6.10873 3.56216,6.37411 0.32961,0.26538 0.6127,0.91677 0.62908,1.44753 0.0813,2.6326 1.68235,7.23763 2.51639,7.23763 0.51991,0 0.6885,0.4155 0.37464,0.92333 -0.31386,0.50783 0.28251,4.30759 1.32527,8.44391 1.04275,4.13632 3.46747,14.60573 5.38825,23.26536 5.58186,25.16518 10.23623,36.77091 19.92444,49.68183 12.28909,16.37697 32.34977,26.71813 59.20894,30.52186 8.24092,1.16706 12.46781,-0.0664 17.51125,-5.10979 3.91687,-3.91686 6.12897,-9.01693 6.14026,-14.15652 0.0156,-7.11925 -9.10887,-16.57771 -17.18431,-17.81323 -1.95701,-0.29942 -5.94662,-1.07393 -8.8658,-1.72114 -2.91918,-0.64721 -5.74185,-1.17674 -6.27261,-1.17674 -0.53076,0 -1.18215,-0.23093 -1.44753,-0.51319 -0.26538,-0.28225 -3.39641,-1.92939 -6.95785,-3.66031 -7.63107,-3.70884 -14.1728,-10.5906 -17.34682,-18.24846 -1.15828,-2.79458 -2.44669,-5.08106 -2.86313,-5.08106 -0.41643,0 -0.50719,-0.65138 -0.20169,-1.44752 0.30552,-0.79614 0.18332,-1.44852 -0.27153,-1.44973 -0.45486,-9.6e-4 -0.87777,-1.39328 -0.93981,-3.09349 -0.062,-1.70021 -0.60756,-3.25621 -1.21229,-3.45779 -0.60472,-0.20157 -0.88637,-0.71132 -0.6259,-1.13277 0.70566,-1.14177 -8.52523,-41.78335 -11.51485,-50.69734 -12.54222,-37.39655 -39.13244,-59.34862 -83.03597,-68.55196 -5.83836,-1.22387 -14.95778,-2.73669 -20.26538,-3.36182 -5.3076,-0.62513 -11.38722,-1.43286 -13.51026,-1.79495 l -3.86007,-0.65837 -0.2515,-41.70668 -0.25151,-41.70668 h 19.63794 c 10.80086,0 28.23486,-0.28793 38.7422,-0.63982 l 19.10427,-0.63983 3.92426,-2.99313 c 5.59179,-4.265 7.84636,-8.58879 7.83182,-15.01978 -0.0147,-6.49637 -3.02768,-12.37497 -8.16862,-15.93764 l -3.52973,-2.44611 -38.74775,-0.61849 -38.74774,-0.6185 -0.25433,-66.18871 c -0.13988,-36.40379 0.005,-66.405833 0.32195,-66.671213 0.31696,-0.26538 0.83651,-2.738606 1.15456,-5.496058 1.38288,-11.989435 9.03607,-27.502989 18.7369,-37.981048 8.5663,-9.252624 22.12725,-18.013622 32.84951,-21.222291 2.25573,-0.675034 4.10444,-1.484291 4.10825,-1.798348 0.004,-0.314057 2.28366,-0.682985 5.06635,-0.819841 2.78268,-0.136855 5.16824,-0.571879 5.30124,-0.966719 0.133,-0.394839 5.12697,-0.435794 11.09771,-0.09101 5.97074,0.344784 11.18158,0.428485 11.57965,0.186002 0.39807,-0.242482 0.72376,-0.05009 0.72376,0.42753 0,0.477624 2.4211,1.410226 5.38022,2.072448 8.23652,1.843251 21.3535,8.901483 29.56808,15.910548 8.31726,7.096672 14.71619,15.493433 19.26034,25.273636 1.69997,3.658774 3.41893,6.788936 3.81995,6.955918 0.401,0.166981 0.4899,0.926933 0.19755,1.688782 -0.29235,0.761848 -0.15939,1.385179 0.29546,1.385179 0.45487,0 0.88537,0.977081 0.95669,2.171291 0.0713,1.19421 0.41973,3.691194 0.77424,5.548854 0.64414,3.375438 0.63934,3.380864 -7.61714,8.623233 -9.63249,6.116051 -18.31742,13.584297 -20.33535,17.486537 -2.02913,3.92389 -1.81389,12.76373 0.41666,17.11324 3.42922,6.68686 8.45109,9.85299 15.62803,9.85299 5.13313,0 8.75571,-1.63961 19.01053,-8.60432 15.67966,-10.64905 24.33006,-13.52093 43.38154,-14.40236 7.56387,-0.34995 13.75205,-0.36608 13.75151,-0.0358 -5.3e-4,0.33023 1.8177,0.89124 4.04053,1.24669 5.49788,0.87915 17.33043,5.71555 24.21439,9.89734 12.32647,7.48794 21.77714,17.99306 28.06727,31.19885 2.14889,4.51146 4.14295,8.41978 4.43127,8.68516 0.28832,0.26538 0.64764,2.00241 0.79849,3.86007 0.15086,1.85766 0.61692,3.49673 1.03569,3.64238 0.41877,0.14564 0.57174,1.55698 0.33996,3.1363 -0.2318,1.57932 -0.0464,2.87088 0.41184,2.8701 0.88626,-0.002 1.19079,17.51902 0.3187,18.33675 -0.28302,0.26538 -1.08099,3.30518 -1.77328,6.75512 -0.69229,3.44994 -2.5152,9.52956 -4.05092,13.51026 -9.49588,24.61414 -27.96632,41.447 -58.79993,53.58676 -5.04222,1.98521 -9.30429,3.96081 -9.47128,4.3902 -0.16697,0.4294 -0.92693,0.54152 -1.68878,0.24917 -0.76184,-0.29234 -1.38518,-0.0645 -1.38518,0.50644 0,0.57089 -0.65138,0.78802 -1.44752,0.48251 -0.79614,-0.30551 -1.44753,-0.0884 -1.44753,0.48251 0,0.57088 -0.55146,0.82635 -1.22548,0.56772 -1.77685,-0.68184 -14.77856,3.93765 -17.86174,6.34626 -6.84073,5.34405 -9.02067,15.32889 -5.04714,23.11765 3.55348,6.9654 12.02592,11.35405 19.57053,10.13737 6.50971,-1.04979 31.10855,-9.53742 42.68204,-14.72708 17.79897,-7.98124 30.44996,-16.14655 42.54121,-27.45732 l 6.37932,-5.96755 8.35035,1.71219 c 15.66083,3.21117 26.29879,8.76702 37.20711,19.43203 7.99619,7.81784 13.9892,16.57509 17.09056,24.97346 1.19977,3.24891 2.42602,6.12425 2.725,6.38963 0.29898,0.26538 0.68229,2.6538 0.85179,5.3076 0.16949,2.6538 0.60702,4.93475 0.97227,5.06877 0.36526,0.13402 0.36439,5.32534 -0.002,11.53627 -0.36631,6.21093 -0.47544,11.60098 -0.2425,11.97788 0.23294,0.37691 9.7e-4,0.83094 -0.51447,1.00896 -0.51591,0.17803 -1.06143,1.84358 -1.21229,3.70124 -0.15086,1.85766 -0.52091,3.5947 -0.82234,3.86008 -0.30144,0.26538 -1.95495,3.51602 -3.67447,7.22366 -3.15202,6.79636 -7.21232,12.56256 -14.80522,21.02554 l -4.13269,4.60626 -5.30759,-1.02399 c -7.76568,-1.49823 -31.9866,-1.26732 -40.61527,0.38719 -18.17708,3.4854 -40.04436,13.69008 -49.77349,23.22752 -7.10751,6.96748 -8.87762,11.63084 -7.0978,18.69914 2.14308,8.51092 7.58505,13.19867 16.49219,14.20647 4.57087,0.51718 5.9186,0.23597 10.54804,-2.20084 5.74961,-3.02642 18.51788,-10.79482 19.30037,-11.74262 0.26538,-0.32144 0.91676,-0.60058 1.44752,-0.62029 0.53076,-0.0197 4.00483,-1.0293 7.72015,-2.24351 5.01176,-1.63792 10.17969,-2.37582 20.02455,-2.85922 7.29819,-0.35835 13.26924,-0.32584 13.269,0.0722 -2.3e-4,0.39807 0.98457,0.72376 2.18846,0.72376 3.64582,0 20.36779,6.15842 26.34297,9.70168 7.09193,4.20548 18.43279,14.82748 23.16151,21.69337 1.99841,2.90161 3.99555,5.27564 4.43809,5.27564 0.44254,0 0.70135,0.32569 0.57516,0.72376 -0.38695,1.22054 2.33616,6.99638 3.29854,6.99638 0.49768,0 0.66799,0.38331 0.37845,0.8518 -0.28955,0.46848 0.32655,3.33106 1.3691,6.36126 1.04253,3.03021 2.17826,7.64087 2.52384,10.24592 0.34557,2.60504 0.89806,4.73644 1.22775,4.73644 0.32969,0 0.59944,3.69119 0.59944,8.20265 0,4.51146 -0.3732,8.20266 -0.82934,8.20266 -0.45614,0 -0.6527,1.51305 -0.43681,3.36232 0.21589,1.84929 0.0224,3.48571 -0.42995,3.6365 -0.45237,0.15078 -0.90719,1.89273 -1.01072,3.87098 -0.10352,1.97825 -0.51393,3.59876 -0.912,3.60115 -0.39807,0.002 -0.72376,0.52712 -0.72376,1.16608 0,0.63898 -1.9209,5.09013 -4.26866,9.89144 -6.9461,14.20519 -16.29969,24.10154 -30.9545,32.75073 -3.18456,1.87949 -6.28666,3.83999 -6.89355,4.35663 -0.6069,0.51664 -1.29321,0.74959 -1.52513,0.51765 -0.47958,-0.47957 -9.66161,2.47426 -10.39917,3.34538 -0.26538,0.31344 -1.56816,0.63792 -2.89506,0.72107 -1.3269,0.0832 -6.38614,0.52801 -11.24277,0.98861 -7.9139,0.75053 -8.93971,0.66209 -9.88545,-0.85228 -1.96497,-3.1464 -8.89995,-5.97 -14.75845,-6.00895 -4.57269,-0.0304 -6.17537,0.44617 -9.6039,2.85583 -6.58691,4.62946 -10.09311,12.43091 -8.58735,19.10725 0.39867,1.76764 4.09789,8.30034 8.2205,14.51712 7.9797,12.03313 12.50768,22.13177 13.59352,30.31727 0.36682,2.76525 0.93684,5.02771 1.2667,5.02771 1.43167,0 -0.79618,24.83754 -2.81317,31.36309 -8.20155,26.53428 -28.49428,46.01317 -54.88928,52.6879 -6.92716,1.75173 -9.98448,1.97814 -21.21679,1.57119 -7.21785,-0.2615 -14.77958,-0.98844 -16.80383,-1.61542 l -3.68046,-1.13996 0.78541,-5.48647 c 0.43197,-3.01757 0.72856,-12.65174 0.65908,-21.40928 -0.10906,-13.74622 -0.46514,-17.21256 -2.60492,-25.35811 -7.63905,-29.07994 -27.45477,-54.20383 -51.9126,-65.8188 -9.93675,-4.71894 -18.77825,-7.07382 -31.35753,-8.35188 -13.91837,-1.41411 -18.76231,-0.68138 -23.44145,3.54594 -5.29645,4.78503 -7.23464,9.69744 -6.41486,16.25874 1.34733,10.78367 7.53563,15.59588 22.01086,17.1163 4.90888,0.51562 10.01088,1.02561 11.33778,1.13332 1.3269,0.10771 2.62967,0.42743 2.89505,0.71048 0.26538,0.28304 3.32836,1.70695 6.80662,3.16424 14.45446,6.05598 28.48812,23.20097 32.81749,40.0933 0.69934,2.72869 1.54848,4.96124 1.88698,4.96124 0.33849,0 0.42424,1.30277 0.19054,2.89505 -0.2337,1.59228 -0.0466,2.89506 0.41579,2.89506 0.46765,0 0.54509,5.0121 0.17452,11.29501 -0.3664,6.21227 -0.45266,11.6405 -0.1917,12.06273 0.26095,0.42224 -0.0361,0.76771 -0.66005,0.76771 -0.65942,0 -0.92317,0.80825 -0.62981,1.93004 0.2776,1.06152 0.17985,1.93003 -0.21721,1.93003 -0.39705,0 -1.26774,1.8456 -1.93485,4.10133 -2.02302,6.84054 -8.48833,18.37512 -14.14019,25.22714 -11.74029,14.23334 -34.49138,26.64262 -48.84633,26.64262 -2.01152,0 -3.657,0.32569 -3.6566,0.72376 4e-4,0.39807 -3.03834,0.72377 -6.75275,0.72377 -3.7144,0 -6.75453,-0.3257 -6.75584,-0.72377 z"
   id="path26192"
   transform="scale(0.64)" /><path
   style="fill:#001980;fill-opacity:0.698039;stroke:#001980;stroke-width:0.931242;stroke-opacity:0.698039"
   d="m 289.98794,779.38452 c -18.09597,-4.23458 -33.2505,-13.45301 -44.34145,-26.9727 -5.28263,-6.43946 -11.66424,-17.94317 -13.61723,-24.54692 -0.66711,-2.25573 -1.46989,-4.10133 -1.78394,-4.10133 -0.31406,0 -0.63318,-1.19421 -0.70916,-2.6538 -0.0759,-1.45959 -0.51356,-7.75633 -0.97242,-13.99276 -0.47357,-6.43653 -0.4708,-11.33896 0.007,-11.33896 0.46238,0 0.64949,-1.30278 0.41579,-2.89506 -0.2337,-1.59228 -0.0153,-2.89505 0.48553,-2.89505 0.50074,0 0.68332,-0.86852 0.40572,-1.93004 -0.2776,-1.06152 -0.17985,-1.93004 0.21721,-1.93004 0.39705,0 1.26724,-1.84559 1.93373,-4.10132 2.00684,-6.79211 7.56643,-16.5058 13.3852,-23.38654 11.8938,-14.06451 13.77129,-18.13357 11.77964,-25.52996 -1.89229,-7.02743 -8.39061,-12.51758 -16.65031,-14.06711 -10.1082,-1.89631 -27.06051,14.12422 -38.31007,36.20436 -4.5293,8.88988 -9.12005,23.06292 -10.72097,33.09886 -1.15831,7.26131 -0.77016,30.46143 0.63575,37.99856 0.53733,2.8807 0.34945,3.13235 -3.14622,4.21389 -2.04473,0.63264 -9.6232,1.3642 -16.84106,1.6257 -11.17281,0.40479 -14.30607,0.17638 -21.08065,-1.53677 -18.7555,-4.74286 -35.6551,-16.62128 -45.33441,-31.8647 -1.55493,-2.44877 -3.40225,-5.12411 -4.10516,-5.9452 -0.7029,-0.82109 -1.3587,-2.12386 -1.45731,-2.89506 -0.0986,-0.77118 -1.2734,-4.2996 -2.610596,-7.84091 -1.337207,-3.5413 -2.723803,-8.64384 -3.081323,-11.33896 -0.357858,-2.69512 -0.920123,-4.90022 -1.249815,-4.90022 -0.329691,0 -0.599439,-4.34258 -0.599439,-9.65018 0,-5.3076 0.269748,-9.65018 0.599439,-9.65018 0.550014,0 2.139417,-8.18417 2.248937,-11.58021 0.02567,-0.79614 0.287354,-1.66466 0.581511,-1.93004 0.294156,-0.26538 2.100622,-3.81068 4.014366,-7.87845 1.91375,-4.06777 6.34135,-11.58738 9.83911,-16.71026 3.49777,-5.12288 6.42507,-10.47986 6.50511,-11.90442 0.60332,-10.73829 -4.3319,-18.29818 -13.95994,-21.38412 -5.709575,-1.83001 -13.490112,0.26949 -18.722819,5.05217 -1.927656,1.76187 -2.929506,1.89075 -10.13269,1.30349 -4.396442,-0.35844 -9.296305,-0.74624 -10.888585,-0.8618 -1.59228,-0.11555 -3.112183,-0.47132 -3.377563,-0.79059 -0.26538,-0.31927 -3.359609,-1.53087 -6.876065,-2.69244 -16.996111,-5.61423 -34.244174,-20.68432 -42.5098151,-37.14197 -1.6314074,-3.24828 -3.348913,-6.05162 -3.8166776,-6.22964 -0.4677645,-0.17803 -0.6629618,-0.62709 -0.4337717,-0.99793 0.2291902,-0.37083 -0.4194914,-3.68985 -1.4415145,-7.37558 -1.0220231,-3.68573 -1.8582239,-7.68781 -1.8582239,-8.89351 0,-1.2057 -0.3256936,-2.19152 -0.7237635,-2.19071 -0.89951347,0.002 -0.96909166,-16.70296 -0.072407,-17.38399 0.358246,-0.2721 0.7925042,-2.66052 0.9650181,-5.3076 0.172514,-2.64709 0.5550107,-5.03002 0.8499926,-5.2954 0.294982,-0.26538 1.5302711,-3.30519 2.745087,-6.75513 6.6152106,-18.78645 23.1401966,-36.37585 41.3423796,-44.00534 3.587188,-1.50359 6.73929,-2.96538 7.00467,-3.24842 0.26538,-0.28305 1.133897,-0.52881 1.930037,-0.54614 3.072251,-0.0669 10.615166,-1.6653 10.614538,-2.24935 -3.63e-4,-0.33781 5.753557,-0.33361 12.786489,0.01 9.828522,0.47926 14.563824,1.19589 20.465904,3.09728 4.22332,1.36057 7.85222,2.3003 8.06422,2.08828 0.21202,-0.21201 0.88203,0.0315 1.48893,0.54115 0.60689,0.50965 3.70899,2.60045 6.89355,4.64622 3.18456,2.04577 9.91556,7.49348 14.95778,12.10603 34.08982,31.18479 69.27568,47.77845 101.82082,48.01872 9.42589,0.0696 14.62783,-2.15424 18.41073,-7.87058 4.9237,-7.44024 4.84096,-15.30004 -0.23166,-22.00501 -3.64847,-4.82255 -8.68801,-6.87507 -19.6396,-7.99892 -17.30584,-1.77623 -33.35162,-7.65524 -49.21433,-18.03192 -6.83311,-4.46993 -14.68278,-10.85717 -32.16487,-26.17241 -22.20272,-19.45076 -54.712883,-29.65821 -83.637302,-26.26019 l -10.13269,1.19038 -4.980455,-5.5388 c -6.288373,-6.99335 -12.016971,-17.02715 -15.386768,-26.95036 -2.207764,-6.50132 -2.711381,-9.96762 -3.189946,-21.95575 -0.312556,-7.82957 -0.351155,-14.34345 -0.08577,-14.47527 0.26538,-0.13182 1.236747,-3.19471 2.158594,-6.80642 4.820757,-18.88733 18.837924,-36.69689 36.99988,-47.01033 3.143177,-1.78488 5.851488,-3.57213 6.01847,-3.97167 0.166981,-0.39952 0.870939,-0.50872 1.564353,-0.24262 0.693413,0.26608 1.859567,-0.0841 2.591452,-0.77798 0.731886,-0.69397 2.597413,-1.35346 4.145616,-1.46551 1.548203,-0.11205 3.068107,-0.54631 3.377564,-0.96501 0.756794,-1.02398 3.53089,-1.23679 23.062742,-1.76929 17.5749,-0.47914 19.88283,-1.00071 24.01596,-5.42735 5.47169,-5.86024 6.46756,-14.1092 2.63249,-21.8052 -3.23065,-6.48308 -9.0027,-9.46031 -20.19801,-10.41821 -4.24608,-0.36331 -8.44823,-1.03992 -9.33811,-1.50358 -1.76679,-0.92058 -4.92934,-8.64235 -7.26513,-17.73874 -1.61216,-6.27835 -3.130999,-25.41437 -2.04867,-25.81144 0.36587,-0.13423 0.80391,-2.41534 0.97341,-5.06914 0.1695,-2.6538 0.54953,-5.04222 0.84453,-5.3076 0.29498,-0.26538 1.77404,-3.91287 3.28677,-8.10553 5.95673,-16.50948 20.60478,-32.79446 36.54139,-40.62493 4.86828,-2.39203 11.89122,-5.10829 15.60654,-6.03612 3.71532,-0.92784 6.86281,-1.90411 6.99443,-2.16949 0.13161,-0.26538 2.84572,-0.33537 6.03136,-0.15554 4.35287,0.24572 5.79573,0.006 5.80683,-0.96502 0.0123,-1.07111 0.15592,-1.06926 0.84039,0.0108 0.5793,0.91415 2.44662,1.20204 6.2593,0.96502 2.98854,-0.18579 5.54161,-0.12067 5.67349,0.14471 0.13189,0.26538 3.2796,1.24341 6.99492,2.1734 3.71532,0.92999 10.30651,3.43253 14.64708,5.56118 6.96206,3.41427 10.03213,5.92896 26.05549,21.34201 29.24801,28.134 44.89611,40.43476 62.55437,49.17316 17.34408,8.58294 31.60435,10.54796 39.20391,5.40222 7.17356,-4.85731 9.77645,-16.54367 5.40411,-24.26322 -2.80198,-4.94702 -8.95559,-9.266 -13.5427,-9.50509 -1.95451,-0.10188 -3.5556,-0.46385 -3.55798,-0.80437 -0.004,-0.59559 -4.28487,-2.111 -6.27694,-2.22209 -0.53076,-0.0296 -1.18215,-0.30671 -1.44753,-0.61581 -0.69446,-0.80886 -12.60545,-7.68226 -13.72791,-7.92188 -0.51861,-0.11072 -2.09312,-1.13898 -3.49894,-2.28504 -13.32772,-10.86526 -22.6485,-19.19893 -38.53915,-34.45773 C 250.91153,99.85382 243.14835,93.199577 237.31205,89.560363 l -8.21313,-5.12128 0.69539,-3.377563 c 0.38246,-1.85766 0.72905,-4.354644 0.7702,-5.548854 0.0411,-1.19421 0.44696,-2.171291 0.90183,-2.171291 0.45485,0 0.57705,-0.651387 0.27153,-1.447527 -0.3055,-0.79614 -0.0884,-1.447527 0.48251,-1.447527 0.5709,0 0.78803,-0.651387 0.48251,-1.447527 -0.30551,-0.79614 -0.20079,-1.447527 0.2327,-1.447527 0.4335,0 1.61407,-1.835437 2.62352,-4.078748 6.17153,-13.715229 18.55453,-27.081752 31.99216,-34.533152 2.25573,-1.250843 4.10132,-2.580302 4.10132,-2.954354 0,-0.374052 0.54283,-0.629393 1.20628,-0.567425 1.61492,0.150838 12.30211,-3.427651 12.3109,-4.122169 0.004,-0.301142 2.28366,-0.659502 5.06634,-0.796358 2.78269,-0.136855 5.17028,-0.577986 5.30578,-0.98029 0.13549,-0.402305 5.34658,-0.341316 11.58021,0.13553 6.23362,0.476846 12.52808,0.917976 13.98767,0.98029 1.45959,0.06231 2.6538,0.370254 2.6538,0.684311 0,0.314057 1.8456,1.123621 4.10133,1.79903 5.84864,1.751198 16.66574,7.356588 22.37646,11.595412 9.87695,7.331254 20.53006,20.719018 24.26134,30.489232 0.89873,2.3533 1.99569,4.278727 2.43768,4.278727 0.442,0 0.55367,0.651387 0.24817,1.447527 -0.30552,0.79614 -0.18332,1.447527 0.27153,1.447527 0.45486,0 0.9062,0.977081 1.00298,2.171291 0.80108,9.884348 1.62663,16.164053 2.12499,16.164053 0.32676,0 0.5941,64.270209 0.5941,142.822679 0,78.55247 -0.3257,142.82268 -0.72377,142.82268 -0.39807,0 -0.72376,0.99944 -0.72376,2.22099 v 2.22098 l -8.92642,-1.32888 c -12.02582,-1.79029 -25.07952,-0.53213 -44.24313,4.26428 -8.17533,2.04618 -14.97202,3.93746 -15.10377,4.20284 -0.13176,0.26538 -7.07989,0.21681 -15.44029,-0.10793 -10.43296,-0.40525 -16.51937,-1.08423 -19.40483,-2.16474 -2.31224,-0.86586 -4.55501,-1.35741 -4.98392,-1.09232 -0.42891,0.26508 -0.92549,0.12798 -1.10352,-0.30468 -0.17802,-0.43267 -2.92922,-2.25428 -6.11378,-4.04805 -8.44575,-4.75723 -17.8042,-14.51206 -21.75874,-22.68035 -1.7987,-3.71532 -3.50132,-6.97225 -3.78356,-7.23763 -0.28226,-0.26538 -0.61499,-1.56816 -0.7394,-2.89506 -1.32183,-14.09732 -1.34667,-17.40169 -0.17045,-22.67792 0.70993,-3.18456 1.30674,-6.22437 1.32623,-6.75513 0.0195,-0.53076 0.30281,-1.18215 0.62958,-1.44753 0.32676,-0.26538 1.58048,-2.43667 2.78602,-4.82509 1.20554,-2.38842 3.8731,-6.69827 5.92792,-9.57744 2.05482,-2.87918 4.18508,-6.90251 4.73392,-8.94072 4.1068,-15.25151 -12.65322,-28.40234 -26.92083,-21.12354 -7.79574,3.97709 -19.70739,23.50968 -24.46914,40.12421 -1.87957,6.55816 -2.2126,9.9715 -2.2126,22.67793 0,17.41605 1.56257,24.48264 8.65389,39.13637 10.08925,20.84873 29.87013,38.23803 53.01902,46.60882 11.96316,4.32596 20.0859,5.26787 40.76607,4.7272 15.75303,-0.41185 19.46961,-0.82166 27.8093,-3.0664 5.2944,-1.42506 9.85411,-2.89273 10.13269,-3.26147 0.27858,-0.36875 2.23743,-0.8106 4.35299,-0.98189 2.11557,-0.17128 4.06973,-0.60554 4.34258,-0.96501 0.57909,-0.76293 19.56423,-0.89849 20.27897,-0.1448 0.26538,0.27985 2.97949,1.27912 6.03136,2.22061 l 5.54886,1.7118 v 52.38792 52.38792 l -35.24475,0.61864 c -34.8581,0.61186 -35.28116,0.64339 -38.56342,2.87374 -8.73755,5.93732 -11.29418,14.93014 -6.91499,24.32315 2.09526,4.49413 5.43298,8.54349 5.46652,6.63203 0.008,-0.46306 0.37887,-0.2677 0.82385,0.43414 1.53862,2.4267 8.4663,3.04512 41.36905,3.6929 l 33.04,0.65049 0.25312,73.18555 c 0.13923,40.25206 -0.0122,73.18551 -0.33661,73.18545 -0.51446,-10e-5 -1.69077,7.78576 -2.15051,14.23391 -0.0851,1.19421 -0.52696,2.17129 -0.98182,2.17129 -0.45485,0 -0.58781,0.62334 -0.29547,1.38518 0.29236,0.76185 0.20287,1.5218 -0.19886,1.68878 -0.40172,0.16699 -2.37719,3.65687 -4.38991,7.7553 -4.28828,8.73204 -12.31117,18.64244 -20.30576,25.08302 -6.24628,5.03212 -17.99994,11.46696 -24.40518,13.36124 -2.25573,0.66711 -4.10133,1.46988 -4.10133,1.78394 0,0.64445 -0.8045,0.71254 -16.88782,1.42934 -7.77626,0.34656 -13.32369,0.10811 -16.88781,-0.72592 z"
   id="path26194"
   transform="scale(0.64)" /></svg>
